<?xml version="1.0" standalone="no"?>
<!DOCTYPE svg PUBLIC "-//W3C//DTD SVG 20010904//EN"
 "http://www.w3.org/TR/2001/REC-SVG-20010904/DTD/svg10.dtd">
<svg version="1.0" xmlns="http://www.w3.org/2000/svg"
 width="720.000000pt" height="720.000000pt" viewBox="0 0 720.000000 720.000000"
 preserveAspectRatio="xMidYMid meet">
<metadata>
Created by potrace 1.11, written by Peter Selinger 2001-2013
</metadata>
<g transform="translate(0.000000,720.000000) scale(0.100000,-0.100000)"
fill="#000000" stroke="none">
<path d="M1115 7179 c-16 -5 -41 -11 -55 -14 -82 -15 -236 -126 -254 -183 -4
-12 -11 -22 -16 -22 -4 0 -11 -10 -15 -22 -4 -13 -9 -27 -11 -33 -1 -5 -12
-44 -23 -85 -20 -74 -21 -95 -20 -2390 0 -2543 -4 -2372 60 -2507 16 -33 51
-83 77 -110 48 -49 139 -103 172 -103 18 0 18 1 0 43 -54 122 -46 270 23 437
17 41 32 77 32 80 1 3 12 28 25 55 13 28 25 52 25 55 3 8 22 53 43 100 39 86
72 161 98 223 15 34 42 95 60 135 19 41 34 75 34 77 0 2 14 34 32 72 18 37 33
73 34 78 2 9 20 49 88 200 8 17 21 46 29 65 9 19 34 78 57 130 23 52 50 113
60 135 10 22 25 56 33 75 13 30 85 192 152 345 10 22 19 42 20 45 3 8 21 50
50 115 15 33 34 76 42 95 23 53 39 88 77 173 20 43 36 80 36 82 0 2 11 28 24
57 13 29 59 132 101 228 42 96 88 199 101 228 13 29 24 54 24 57 0 2 13 32 29
67 16 35 44 99 64 143 34 79 70 158 108 242 10 24 19 45 19 48 0 2 14 35 31
72 27 59 53 118 128 288 20 44 34 77 36 85 0 3 10 23 22 45 11 22 21 43 22 47
2 9 27 69 61 143 119 265 322 367 585 293 22 -6 45 -12 50 -14 6 -1 30 -11 55
-22 25 -11 135 -59 245 -106 110 -48 214 -93 230 -100 64 -30 125 -56 240
-105 66 -28 128 -56 137 -61 47 -27 47 -30 43 303 -2 252 -6 323 -19 371 -51
183 -148 280 -329 332 l-82 23 -1430 0 c-829 -1 -1443 -5 -1460 -10z"/>
<path d="M3435 6233 c-105 -9 -171 -35 -253 -102 -45 -36 -140 -151 -125 -151
4 0 3 -4 -3 -8 -10 -6 -84 -153 -84 -165 0 -3 -14 -36 -31 -74 -48 -106 -54
-120 -109 -248 -28 -66 -58 -134 -65 -150 -7 -17 -23 -53 -35 -80 -26 -61 -42
-96 -68 -155 -11 -25 -41 -95 -67 -155 -26 -61 -60 -138 -76 -173 -16 -35 -29
-66 -29 -68 0 -3 -9 -24 -19 -47 -11 -23 -83 -188 -160 -367 -132 -304 -161
-369 -182 -412 -5 -10 -9 -24 -9 -31 0 -7 -5 -18 -12 -25 -6 -6 -13 -17 -14
-24 -3 -13 -160 -377 -211 -488 -14 -30 -33 -75 -43 -100 -10 -25 -32 -76 -50
-115 -17 -38 -35 -79 -40 -90 -4 -11 -16 -38 -26 -60 -10 -22 -19 -42 -19 -45
-3 -10 -25 -61 -55 -124 -16 -36 -30 -67 -30 -70 0 -3 -11 -29 -24 -58 -30
-67 -93 -212 -112 -258 -8 -19 -22 -47 -30 -63 -8 -15 -12 -27 -8 -27 3 0 2
-6 -4 -12 -5 -7 -45 -94 -87 -193 -43 -99 -85 -196 -93 -215 -9 -19 -17 -39
-18 -45 -2 -5 -17 -62 -34 -125 -40 -145 -39 -133 -23 -199 8 -31 16 -65 18
-76 23 -102 30 -116 86 -170 31 -30 62 -55 67 -55 6 0 12 -3 14 -7 4 -11 90
-56 165 -87 35 -14 89 -38 120 -52 32 -14 73 -32 91 -40 80 -35 795 -347 877
-384 210 -94 322 -142 333 -143 6 0 12 -4 12 -8 0 -4 12 -10 26 -13 14 -4 56
-21 92 -37 37 -17 81 -37 97 -44 17 -7 50 -22 75 -33 25 -11 79 -34 120 -52
41 -18 108 -47 148 -66 41 -19 79 -34 86 -34 7 0 16 -4 22 -9 18 -17 366 -163
432 -181 76 -21 212 -21 272 1 121 44 231 159 302 318 17 36 43 94 59 129 16
35 32 74 35 88 3 13 10 24 15 24 5 0 8 3 7 8 -1 4 4 20 10 35 7 16 12 33 12
38 0 5 4 9 8 9 5 0 9 6 9 13 0 6 10 35 23 62 12 28 36 78 51 113 16 34 29 64
29 67 0 2 11 28 24 57 13 29 63 143 111 253 48 110 96 220 107 245 11 25 34
77 50 115 52 117 65 147 101 227 20 43 33 78 30 78 -3 0 -1 6 5 12 5 7 31 63
57 123 50 115 72 166 105 238 46 105 102 233 104 242 1 6 13 33 26 60 39 86
56 124 160 364 56 129 113 259 126 290 14 31 29 65 34 76 4 11 17 40 28 65 11
25 83 191 161 370 78 179 148 339 156 355 7 17 37 84 65 150 29 66 58 134 66
150 45 100 58 161 58 270 1 102 -1 114 -28 170 -58 120 -152 205 -308 279 -42
20 -79 36 -82 36 -3 0 -36 14 -73 31 -149 69 -172 79 -177 79 -3 0 -34 13 -68
29 -35 16 -97 44 -138 61 -41 18 -100 44 -130 57 -59 27 -102 45 -110 48 -3 0
-25 10 -50 22 -25 11 -130 58 -235 103 -104 45 -218 95 -253 111 -35 16 -65
29 -67 29 -2 0 -32 13 -67 29 -35 16 -94 42 -133 59 -38 16 -124 53 -190 82
-66 29 -133 58 -150 65 -16 7 -55 24 -85 38 -212 96 -457 198 -505 212 -66 20
-147 31 -190 28z"/>
</g>
</svg>
