<?xml version="1.0" encoding="utf-8"?>
<!-- Generator: Adobe Illustrator 15.0.2, SVG Export Plug-In . SVG Version: 6.00 Build 0)  -->
<!DOCTYPE svg PUBLIC "-//W3C//DTD SVG 1.1//EN" "http://www.w3.org/Graphics/SVG/1.1/DTD/svg11.dtd">
<svg version="1.1" id="Layer_1" xmlns="http://www.w3.org/2000/svg" xmlns:xlink="http://www.w3.org/1999/xlink" x="0px" y="0px"
     width="144px" height="179.826px" viewBox="0 0 144 179.826" enable-background="new 0 0 144 179.826" xml:space="preserve">
<g>
	<path fill="#FFFFFF" d="M75.207,25.539l59.953,26.252c8.509,3.783,10.878,9.936,7.095,18.444L98.266,170.983
		c-3.783,8.517-9.817,10.879-18.091,7.097l-59.954-26.253c-3.548-1.413-6.031-3.188-7.452-5.321l-1.417-5.675v-0.354l1.774-6.742
		L57.113,32.634C60.899,24.354,66.927,21.991,75.207,25.539"/>
    <path fill="#FFFFFF" d="M79.107,0c9.229,0,13.836,4.608,13.836,13.836v12.416L70.949,16.67c-8.515-3.783-14.543-1.421-18.09,7.095
		L8.515,124.515c-2.13,4.732-2.249,8.868-0.356,12.416v0.354C2.719,135.628,0,131.256,0,124.161V13.836C0,4.608,4.611,0,13.836,0
		H79.107"/>
</g>
</svg>
